<?xml version="1.0" encoding="UTF-8" standalone="no" ?>
<!DOCTYPE svg PUBLIC "-//W3C//DTD SVG 1.1//EN" "http://www.w3.org/Graphics/SVG/1.1/DTD/svg11.dtd">
<svg xmlns="http://www.w3.org/2000/svg" xmlns:xlink="http://www.w3.org/1999/xlink" version="1.1" width="1280" height="1024" viewBox="0 0 1280 1024" xml:space="preserve">
<desc>Created with Fabric.js 5.3.0</desc>
<defs>
</defs>
<g transform="matrix(1 0 0 1 640 512)" id="background-logo"  >
<rect style="stroke: none; stroke-width: 0; stroke-dasharray: none; stroke-linecap: butt; stroke-dashoffset: 0; stroke-linejoin: miter; stroke-miterlimit: 4; fill: rgb(255,255,255); fill-opacity: 0; fill-rule: nonzero; opacity: 1;"  paint-order="stroke"  x="-640" y="-512" rx="0" ry="0" width="1280" height="1024" />
</g>
<g transform="matrix(1.9211538461538462 0 0 1.9211538461538462 640.4245750000003 657.7858634114808)" id="text-logo"  >
<g style=""  paint-order="stroke"   >
		<g transform="matrix(1 0 0 1 0 0)" id="text-logo-path-0"  >
<path style="stroke: none; stroke-width: 0; stroke-dasharray: none; stroke-linecap: butt; stroke-dashoffset: 0; stroke-linejoin: miter; stroke-miterlimit: 4; fill: rgb(0,184,225); fill-rule: nonzero; opacity: 1;"  paint-order="stroke"  transform=" translate(-312.84999999999997, 11.9)" d="M 13.43 -3.4 L 4.93 -3.4 L 4.93 -22.44 C 4.93 -23.39 4.18 -24.14 3.23 -24.14 C 2.28 -24.14 1.53 -23.39 1.53 -22.44 L 1.53 -2.04 C 1.53 -0.85 2.41 0 3.57 0 L 13.43 0 C 14.38 0 15.13 -0.75 15.13 -1.7 C 15.13 -2.65 14.38 -3.4 13.43 -3.4 Z M 20.91 -22.44 L 20.91 -6.7 C 20.91 -2.65 23.9 0.34 27.95 0.34 L 28.87 0.34 C 32.78 0.34 35.9 -2.79 35.9 -6.66 L 35.9 -22.44 C 35.9 -23.39 35.16 -24.14 34.2 -24.14 C 33.25 -24.14 32.5 -23.39 32.5 -22.44 L 32.5 -6.66 C 32.5 -4.69 30.87 -3.06 28.87 -3.06 L 27.95 -3.06 C 25.81 -3.06 24.31 -4.56 24.31 -6.7 L 24.31 -22.44 C 24.31 -23.39 23.56 -24.14 22.61 -24.14 C 21.66 -24.14 20.91 -23.39 20.91 -22.44 Z M 45.08 -1.7 L 45.08 -15.5 L 53.07 -0.88 C 53.35 -0.37 53.92 0 54.57 0 L 54.6 0 C 55.56 0 56.3 -0.75 56.3 -1.7 L 56.3 -22.1 C 56.3 -23.05 55.56 -23.8 54.6 -23.8 C 53.65 -23.8 52.9 -23.05 52.9 -22.1 L 52.9 -8.3 L 44.91 -22.92 C 44.64 -23.43 44.06 -23.8 43.42 -23.8 L 43.38 -23.8 C 42.43 -23.8 41.68 -23.05 41.68 -22.1 L 41.68 -1.7 C 41.68 -0.75 42.43 0 43.38 0 C 44.34 0 45.08 -0.75 45.08 -1.7 Z M 70.04 -8.47 L 73.68 -8.47 L 73.68 -6.66 C 73.68 -4.69 72.05 -3.06 70.04 -3.06 L 69.12 -3.06 C 66.98 -3.06 65.48 -4.56 65.48 -6.7 L 65.48 -17.1 C 65.48 -19.24 66.98 -20.74 69.12 -20.74 L 70.04 -20.74 C 72.05 -20.74 73.68 -19.11 73.68 -17.14 C 73.68 -16.18 74.43 -15.44 75.38 -15.44 C 76.33 -15.44 77.08 -16.18 77.08 -17.14 C 77.08 -21.01 73.95 -24.14 70.04 -24.14 L 69.12 -24.14 C 65.08 -24.14 62.08 -21.15 62.08 -17.1 L 62.08 -6.7 C 62.08 -2.65 65.08 0.34 69.12 0.34 L 70.04 0.34 C 73.95 0.34 77.08 -2.79 77.08 -6.66 L 77.08 -9.83 C 77.08 -10.98 76.19 -11.87 75.04 -11.87 L 70.04 -11.87 C 69.09 -11.87 68.34 -11.12 68.34 -10.17 C 68.34 -9.21 69.09 -8.47 70.04 -8.47 Z M 110.77 -17.14 C 110.77 -21.01 107.64 -24.14 103.73 -24.14 L 102.82 -24.14 C 98.77 -24.14 95.78 -21.15 95.78 -17.1 L 95.78 -6.7 C 95.78 -2.65 98.77 0.34 102.82 0.34 L 103.73 0.34 C 107.64 0.34 110.77 -2.79 110.77 -6.66 C 110.77 -7.62 110.02 -8.36 109.07 -8.36 C 108.12 -8.36 107.37 -7.62 107.37 -6.66 C 107.37 -4.69 105.74 -3.06 103.73 -3.06 L 102.82 -3.06 C 100.67 -3.06 99.18 -4.56 99.18 -6.7 L 99.18 -17.1 C 99.18 -19.24 100.67 -20.74 102.82 -20.74 L 103.73 -20.74 C 105.74 -20.74 107.37 -19.11 107.37 -17.14 C 107.37 -16.18 108.12 -15.44 109.07 -15.44 C 110.02 -15.44 110.77 -16.18 110.77 -17.14 Z M 118.52 -0.85 L 119.85 -5.1 L 127.19 -5.1 L 128.52 -0.85 C 128.72 -0.2 129.4 0.34 130.15 0.34 C 131.1 0.34 131.85 -0.41 131.85 -1.36 C 131.85 -1.53 131.82 -1.73 131.78 -1.87 L 125.19 -22.95 C 124.98 -23.6 124.3 -24.14 123.56 -24.14 L 123.52 -24.14 L 123.49 -24.14 C 122.74 -24.14 122.06 -23.6 121.86 -22.95 L 115.26 -1.87 C 115.23 -1.73 115.19 -1.53 115.19 -1.36 C 115.19 -0.41 115.94 0.34 116.89 0.34 C 117.64 0.34 118.32 -0.2 118.52 -0.85 Z M 120.9 -8.5 L 123.52 -16.83 L 126.14 -8.5 Z M 141.03 -1.7 L 141.03 -15.5 L 149.02 -0.88 C 149.29 -0.37 149.87 0 150.52 0 L 150.55 0 C 151.5 0 152.25 -0.75 152.25 -1.7 L 152.25 -22.1 C 152.25 -23.05 151.5 -23.8 150.55 -23.8 C 149.6 -23.8 148.85 -23.05 148.85 -22.1 L 148.85 -8.3 L 140.86 -22.92 C 140.59 -23.43 140.01 -23.8 139.37 -23.8 L 139.33 -23.8 C 138.38 -23.8 137.63 -23.05 137.63 -22.1 L 137.63 -1.7 C 137.63 -0.75 138.38 0 139.33 0 C 140.28 0 141.03 -0.75 141.03 -1.7 Z M 173.03 -17.14 C 173.03 -21.01 169.9 -24.14 165.99 -24.14 L 165.07 -24.14 C 161.02 -24.14 158.03 -21.15 158.03 -17.1 L 158.03 -6.7 C 158.03 -2.65 161.02 0.34 165.07 0.34 L 165.99 0.34 C 169.9 0.34 173.03 -2.79 173.03 -6.66 C 173.03 -7.62 172.28 -8.36 171.33 -8.36 C 170.37 -8.36 169.63 -7.62 169.63 -6.66 C 169.63 -4.69 167.99 -3.06 165.99 -3.06 L 165.07 -3.06 C 162.93 -3.06 161.43 -4.56 161.43 -6.7 L 161.43 -17.1 C 161.43 -19.24 162.93 -20.74 165.07 -20.74 L 165.99 -20.74 C 167.99 -20.74 169.63 -19.11 169.63 -17.14 C 169.63 -16.18 170.37 -15.44 171.33 -15.44 C 172.28 -15.44 173.03 -16.18 173.03 -17.14 Z M 191.73 -3.4 L 182.21 -3.4 L 182.21 -10.2 L 188.33 -10.2 C 189.28 -10.2 190.03 -10.95 190.03 -11.9 C 190.03 -12.85 189.28 -13.6 188.33 -13.6 L 182.21 -13.6 L 182.21 -20.4 L 191.73 -20.4 C 192.68 -20.4 193.43 -21.15 193.43 -22.1 C 193.43 -23.05 192.68 -23.8 191.73 -23.8 L 180.85 -23.8 C 179.69 -23.8 178.81 -22.92 178.81 -21.76 L 178.81 -2.04 C 178.81 -0.85 179.69 0 180.85 0 L 191.73 0 C 192.68 0 193.43 -0.75 193.43 -1.7 C 193.43 -2.65 192.68 -3.4 191.73 -3.4 Z M 199.21 -1.36 C 199.21 -0.41 199.95 0.34 200.91 0.34 C 201.86 0.34 202.61 -0.41 202.61 -1.36 L 202.61 -9.76 L 205.22 -9.76 L 211.07 -0.44 C 211.34 0 211.89 0.34 212.5 0.34 C 213.45 0.34 214.2 -0.41 214.2 -1.36 C 214.2 -1.7 214.1 -2.01 213.93 -2.28 L 209.07 -10.03 C 212.02 -10.85 214.2 -13.57 214.2 -16.8 C 214.2 -20.67 211.07 -23.8 207.16 -23.8 L 201.25 -23.8 C 200.09 -23.8 199.21 -22.92 199.21 -21.76 Z M 202.61 -13.16 L 202.61 -20.4 L 207.16 -20.4 C 209.17 -20.4 210.8 -18.77 210.8 -16.8 C 210.8 -14.79 209.17 -13.16 207.16 -13.16 Z M 236.23 -0.85 L 237.56 -5.1 L 244.9 -5.1 L 246.23 -0.85 C 246.43 -0.2 247.11 0.34 247.86 0.34 C 248.81 0.34 249.56 -0.41 249.56 -1.36 C 249.56 -1.53 249.53 -1.73 249.49 -1.87 L 242.9 -22.95 C 242.69 -23.6 242.01 -24.14 241.26 -24.14 L 241.23 -24.14 L 241.2 -24.14 C 240.45 -24.14 239.77 -23.6 239.56 -22.95 L 232.97 -1.87 C 232.93 -1.73 232.9 -1.53 232.9 -1.36 C 232.9 -0.41 233.65 0.34 234.6 0.34 C 235.35 0.34 236.03 -0.2 236.23 -0.85 Z M 238.61 -8.5 L 241.23 -16.83 L 243.85 -8.5 Z M 260.58 -0.92 L 264.55 -15.88 L 268.5 -0.92 C 268.7 -0.17 269.35 0.34 270.13 0.34 L 270.16 0.34 L 270.2 0.34 C 270.98 0.34 271.63 -0.17 271.83 -0.92 L 277.41 -22 C 277.68 -23.02 276.93 -24.14 275.77 -24.14 C 274.99 -24.14 274.35 -23.63 274.14 -22.88 L 270.16 -7.85 L 266.19 -22.88 C 265.98 -23.63 265.34 -24.14 264.55 -24.14 L 264.52 -24.14 C 263.74 -24.14 263.09 -23.63 262.89 -22.88 L 258.91 -7.85 L 254.93 -22.88 C 254.73 -23.63 254.08 -24.14 253.3 -24.14 C 252.14 -24.14 251.4 -23.02 251.67 -22 L 257.24 -0.92 C 257.45 -0.17 258.09 0.34 258.88 0.34 L 258.91 0.34 L 258.94 0.34 C 259.73 0.34 260.37 -0.17 260.58 -0.92 Z M 283.19 -0.85 L 284.51 -5.1 L 291.86 -5.1 L 293.18 -0.85 C 293.39 -0.2 294.07 0.34 294.81 0.34 C 295.77 0.34 296.51 -0.41 296.51 -1.36 C 296.51 -1.53 296.48 -1.73 296.45 -1.87 L 289.85 -22.95 C 289.65 -23.6 288.97 -24.14 288.22 -24.14 L 288.18 -24.14 L 288.15 -24.14 C 287.4 -24.14 286.72 -23.6 286.52 -22.95 L 279.92 -1.87 C 279.89 -1.73 279.85 -1.53 279.85 -1.36 C 279.85 -0.41 280.6 0.34 281.55 0.34 C 282.3 0.34 282.98 -0.2 283.19 -0.85 Z M 285.57 -8.5 L 288.18 -16.83 L 290.8 -8.5 Z M 302.29 -1.36 C 302.29 -0.41 303.04 0.34 303.99 0.34 C 304.95 0.34 305.69 -0.41 305.69 -1.36 L 305.69 -9.76 L 308.31 -9.76 L 314.16 -0.44 C 314.43 0 314.98 0.34 315.59 0.34 C 316.54 0.34 317.29 -0.41 317.29 -1.36 C 317.29 -1.7 317.19 -2.01 317.02 -2.28 L 312.15 -10.03 C 315.11 -10.85 317.29 -13.57 317.29 -16.8 C 317.29 -20.67 314.16 -23.8 310.25 -23.8 L 304.33 -23.8 C 303.18 -23.8 302.29 -22.92 302.29 -21.76 Z M 305.69 -13.16 L 305.69 -20.4 L 310.25 -20.4 C 312.26 -20.4 313.89 -18.77 313.89 -16.8 C 313.89 -14.79 312.26 -13.16 310.25 -13.16 Z M 335.99 -3.4 L 326.47 -3.4 L 326.47 -10.2 L 332.59 -10.2 C 333.54 -10.2 334.29 -10.95 334.29 -11.9 C 334.29 -12.85 333.54 -13.6 332.59 -13.6 L 326.47 -13.6 L 326.47 -20.4 L 335.99 -20.4 C 336.94 -20.4 337.69 -21.15 337.69 -22.1 C 337.69 -23.05 336.94 -23.8 335.99 -23.8 L 325.11 -23.8 C 323.95 -23.8 323.07 -22.92 323.07 -21.76 L 323.07 -2.04 C 323.07 -0.85 323.95 0 325.11 0 L 335.99 0 C 336.94 0 337.69 -0.75 337.69 -1.7 C 337.69 -2.65 336.94 -3.4 335.99 -3.4 Z M 346.87 -1.7 L 346.87 -15.5 L 354.86 -0.88 C 355.13 -0.37 355.71 0 356.35 0 L 356.39 0 C 357.34 0 358.09 -0.75 358.09 -1.7 L 358.09 -22.1 C 358.09 -23.05 357.34 -23.8 356.39 -23.8 C 355.44 -23.8 354.69 -23.05 354.69 -22.1 L 354.69 -8.3 L 346.7 -22.92 C 346.43 -23.43 345.85 -23.8 345.2 -23.8 L 345.17 -23.8 C 344.22 -23.8 343.47 -23.05 343.47 -22.1 L 343.47 -1.7 C 343.47 -0.75 344.22 0 345.17 0 C 346.12 0 346.87 -0.75 346.87 -1.7 Z M 376.79 -3.4 L 367.27 -3.4 L 367.27 -10.2 L 373.39 -10.2 C 374.34 -10.2 375.09 -10.95 375.09 -11.9 C 375.09 -12.85 374.34 -13.6 373.39 -13.6 L 367.27 -13.6 L 367.27 -20.4 L 376.79 -20.4 C 377.74 -20.4 378.49 -21.15 378.49 -22.1 C 378.49 -23.05 377.74 -23.8 376.79 -23.8 L 365.91 -23.8 C 364.75 -23.8 363.87 -22.92 363.87 -21.76 L 363.87 -2.04 C 363.87 -0.85 364.75 0 365.91 0 L 376.79 0 C 377.74 0 378.49 -0.75 378.49 -1.7 C 378.49 -2.65 377.74 -3.4 376.79 -3.4 Z M 384.27 -6.7 C 384.27 -2.65 387.26 0.34 391.31 0.34 L 392.22 0.34 C 396.13 0.34 399.26 -2.79 399.26 -6.66 C 399.26 -10.17 396.2 -11.76 392.46 -13.5 C 389.64 -14.86 387.67 -15.95 387.67 -17.78 C 387.67 -19.24 389.16 -20.74 391.31 -20.74 L 392.22 -20.74 C 394.23 -20.74 395.86 -19.11 395.86 -17.14 C 395.86 -16.18 396.61 -15.44 397.56 -15.44 C 398.51 -15.44 399.26 -16.18 399.26 -17.14 C 399.26 -21.01 396.13 -24.14 392.22 -24.14 L 391.31 -24.14 C 387.26 -24.14 384.27 -21.15 384.27 -17.78 C 384.27 -13.7 388.08 -11.87 391.03 -10.44 C 393.89 -9.11 395.86 -8.13 395.86 -6.66 C 395.86 -4.69 394.23 -3.06 392.22 -3.06 L 391.31 -3.06 C 389.16 -3.06 387.67 -4.56 387.67 -6.7 C 387.67 -7.65 386.92 -8.4 385.97 -8.4 C 385.02 -8.4 384.27 -7.65 384.27 -6.7 Z M 405.04 -6.7 C 405.04 -2.65 408.03 0.34 412.08 0.34 L 413 0.34 C 416.91 0.34 420.04 -2.79 420.04 -6.66 C 420.04 -10.17 416.98 -11.76 413.24 -13.5 C 410.41 -14.86 408.44 -15.95 408.44 -17.78 C 408.44 -19.24 409.94 -20.74 412.08 -20.74 L 413 -20.74 C 415 -20.74 416.64 -19.11 416.64 -17.14 C 416.64 -16.18 417.38 -15.44 418.34 -15.44 C 419.29 -15.44 420.04 -16.18 420.04 -17.14 C 420.04 -21.01 416.91 -24.14 413 -24.14 L 412.08 -24.14 C 408.03 -24.14 405.04 -21.15 405.04 -17.78 C 405.04 -13.7 408.85 -11.87 411.81 -10.44 C 414.66 -9.11 416.64 -8.13 416.64 -6.66 C 416.64 -4.69 415 -3.06 413 -3.06 L 412.08 -3.06 C 409.94 -3.06 408.44 -4.56 408.44 -6.7 C 408.44 -7.65 407.69 -8.4 406.74 -8.4 C 405.79 -8.4 405.04 -7.65 405.04 -6.7 Z M 442.14 -1.36 L 442.14 -10.2 L 448.26 -10.2 C 449.21 -10.2 449.96 -10.95 449.96 -11.9 C 449.96 -12.85 449.21 -13.6 448.26 -13.6 L 442.14 -13.6 L 442.14 -20.4 L 451.66 -20.4 C 452.61 -20.4 453.36 -21.15 453.36 -22.1 C 453.36 -23.05 452.61 -23.8 451.66 -23.8 L 440.78 -23.8 C 439.62 -23.8 438.74 -22.92 438.74 -21.76 L 438.74 -1.36 C 438.74 -0.41 439.48 0.34 440.44 0.34 C 441.39 0.34 442.14 -0.41 442.14 -1.36 Z M 474.13 -6.66 L 474.13 -17.14 C 474.13 -21.01 471 -24.14 467.09 -24.14 L 466.17 -24.14 C 462.13 -24.14 459.14 -21.15 459.14 -17.1 L 459.14 -6.7 C 459.14 -2.65 462.13 0.34 466.17 0.34 L 467.09 0.34 C 471 0.34 474.13 -2.79 474.13 -6.66 Z M 470.73 -17.14 L 470.73 -6.66 C 470.73 -4.69 469.1 -3.06 467.09 -3.06 L 466.17 -3.06 C 464.03 -3.06 462.54 -4.56 462.54 -6.7 L 462.54 -17.1 C 462.54 -19.24 464.03 -20.74 466.17 -20.74 L 467.09 -20.74 C 469.1 -20.74 470.73 -19.11 470.73 -17.14 Z M 479.91 -22.44 L 479.91 -6.7 C 479.91 -2.65 482.9 0.34 486.95 0.34 L 487.87 0.34 C 491.78 0.34 494.9 -2.79 494.9 -6.66 L 494.9 -22.44 C 494.9 -23.39 494.16 -24.14 493.2 -24.14 C 492.25 -24.14 491.5 -23.39 491.5 -22.44 L 491.5 -6.66 C 491.5 -4.69 489.87 -3.06 487.87 -3.06 L 486.95 -3.06 C 484.81 -3.06 483.31 -4.56 483.31 -6.7 L 483.31 -22.44 C 483.31 -23.39 482.56 -24.14 481.61 -24.14 C 480.66 -24.14 479.91 -23.39 479.91 -22.44 Z M 504.08 -1.7 L 504.08 -15.5 L 512.07 -0.88 C 512.35 -0.37 512.92 0 513.57 0 L 513.6 0 C 514.56 0 515.3 -0.75 515.3 -1.7 L 515.3 -22.1 C 515.3 -23.05 514.56 -23.8 513.6 -23.8 C 512.65 -23.8 511.9 -23.05 511.9 -22.1 L 511.9 -8.3 L 503.91 -22.92 C 503.64 -23.43 503.06 -23.8 502.42 -23.8 L 502.38 -23.8 C 501.43 -23.8 500.68 -23.05 500.68 -22.1 L 500.68 -1.7 C 500.68 -0.75 501.43 0 502.38 0 C 503.34 0 504.08 -0.75 504.08 -1.7 Z M 536.08 -7 L 536.08 -17.2 C 536.08 -20.88 533.15 -23.8 529.48 -23.8 L 523.12 -23.8 C 521.97 -23.8 521.08 -22.92 521.08 -21.76 L 521.08 -2.04 C 521.08 -0.85 521.97 0 523.12 0 L 529.04 0 C 532.95 0 536.08 -3.13 536.08 -7 Z M 532.68 -17.2 L 532.68 -7 C 532.68 -5.03 531.05 -3.4 529.04 -3.4 L 524.48 -3.4 L 524.48 -20.4 L 529.48 -20.4 C 531.25 -20.4 532.68 -18.97 532.68 -17.2 Z M 543.83 -0.85 L 545.16 -5.1 L 552.5 -5.1 L 553.83 -0.85 C 554.03 -0.2 554.71 0.34 555.46 0.34 C 556.41 0.34 557.16 -0.41 557.16 -1.36 C 557.16 -1.53 557.12 -1.73 557.09 -1.87 L 550.49 -22.95 C 550.29 -23.6 549.61 -24.14 548.86 -24.14 L 548.83 -24.14 L 548.79 -24.14 C 548.05 -24.14 547.37 -23.6 547.16 -22.95 L 540.57 -1.87 C 540.53 -1.73 540.5 -1.53 540.5 -1.36 C 540.5 -0.41 541.25 0.34 542.2 0.34 C 542.95 0.34 543.63 -0.2 543.83 -0.85 Z M 546.21 -8.5 L 548.83 -16.83 L 551.45 -8.5 Z M 560.9 -20.4 L 564.81 -20.4 L 564.81 -1.36 C 564.81 -0.41 565.56 0.34 566.51 0.34 C 567.46 0.34 568.21 -0.41 568.21 -1.36 L 568.21 -20.4 L 572.12 -20.4 C 573.07 -20.4 573.82 -21.15 573.82 -22.1 C 573.82 -23.05 573.07 -23.8 572.12 -23.8 L 560.9 -23.8 C 559.95 -23.8 559.2 -23.05 559.2 -22.1 C 559.2 -21.15 559.95 -20.4 560.9 -20.4 Z M 583 -1.36 L 583 -22.44 C 583 -23.39 582.25 -24.14 581.3 -24.14 C 580.35 -24.14 579.6 -23.39 579.6 -22.44 L 579.6 -1.36 C 579.6 -0.41 580.35 0.34 581.3 0.34 C 582.25 0.34 583 -0.41 583 -1.36 Z M 603.77 -6.66 L 603.77 -17.14 C 603.77 -21.01 600.64 -24.14 596.73 -24.14 L 595.82 -24.14 C 591.77 -24.14 588.78 -21.15 588.78 -17.1 L 588.78 -6.7 C 588.78 -2.65 591.77 0.34 595.82 0.34 L 596.73 0.34 C 600.64 0.34 603.77 -2.79 603.77 -6.66 Z M 600.37 -17.14 L 600.37 -6.66 C 600.37 -4.69 598.74 -3.06 596.73 -3.06 L 595.82 -3.06 C 593.67 -3.06 592.18 -4.56 592.18 -6.7 L 592.18 -17.1 C 592.18 -19.24 593.67 -20.74 595.82 -20.74 L 596.73 -20.74 C 598.74 -20.74 600.37 -19.11 600.37 -17.14 Z M 612.95 -1.7 L 612.95 -15.5 L 620.94 -0.88 C 621.21 -0.37 621.79 0 622.44 0 L 622.47 0 C 623.42 0 624.17 -0.75 624.17 -1.7 L 624.17 -22.1 C 624.17 -23.05 623.42 -23.8 622.47 -23.8 C 621.52 -23.8 620.77 -23.05 620.77 -22.1 L 620.77 -8.3 L 612.78 -22.92 C 612.51 -23.43 611.93 -23.8 611.29 -23.8 L 611.25 -23.8 C 610.3 -23.8 609.55 -23.05 609.55 -22.1 L 609.55 -1.7 C 609.55 -0.75 610.3 0 611.25 0 C 612.2 0 612.95 -0.75 612.95 -1.7 Z" stroke-linecap="round" />
</g>
</g>
</g>
<g transform="matrix(1.9211538461538462 0 0 1.9211538461538462 639.8263231495336 763.2982069884038)" id="tagline-489a6133-92ac-4112-9a64-910c43e25f3c-logo"  >
<g style=""  paint-order="stroke"   >
		<g transform="matrix(1 0 0 1 0 0)" id="tagline-489a6133-92ac-4112-9a64-910c43e25f3c-logo-path-0"  >
<path style="stroke: none; stroke-width: 0; stroke-dasharray: none; stroke-linecap: butt; stroke-dashoffset: 0; stroke-linejoin: miter; stroke-miterlimit: 4; fill: rgb(0,184,225); fill-rule: nonzero; opacity: 1;"  paint-order="stroke"  transform=" translate(-243.07999999999998, 5.25)" d="M 0.67 -2.96 C 0.67 -1.17 1.99 0.15 3.78 0.15 L 4.18 0.15 C 5.91 0.15 7.29 -1.23 7.29 -2.94 C 7.29 -4.48 5.94 -5.19 4.29 -5.96 C 3.04 -6.55 2.17 -7.04 2.17 -7.84 C 2.17 -8.49 2.83 -9.15 3.78 -9.15 L 4.18 -9.15 C 5.07 -9.15 5.79 -8.43 5.79 -7.56 C 5.79 -7.14 6.12 -6.81 6.54 -6.81 C 6.96 -6.81 7.29 -7.14 7.29 -7.56 C 7.29 -9.27 5.91 -10.65 4.18 -10.65 L 3.78 -10.65 C 1.99 -10.65 0.67 -9.33 0.67 -7.84 C 0.67 -6.04 2.35 -5.23 3.66 -4.6 C 4.92 -4.02 5.79 -3.58 5.79 -2.94 C 5.79 -2.07 5.07 -1.35 4.18 -1.35 L 3.78 -1.35 C 2.83 -1.35 2.17 -2.01 2.17 -2.96 C 2.17 -3.38 1.84 -3.71 1.43 -3.71 C 1 -3.71 0.67 -3.38 0.67 -2.96 Z M 17.61 -0.38 L 18.2 -2.25 L 21.43 -2.25 L 22.02 -0.38 C 22.11 -0.09 22.41 0.15 22.74 0.15 C 23.16 0.15 23.49 -0.18 23.49 -0.6 C 23.49 -0.67 23.48 -0.77 23.46 -0.82 L 20.55 -10.13 C 20.46 -10.41 20.16 -10.65 19.83 -10.65 L 19.81 -10.65 L 19.8 -10.65 C 19.47 -10.65 19.17 -10.41 19.08 -10.13 L 16.17 -0.82 C 16.16 -0.77 16.14 -0.67 16.14 -0.6 C 16.14 -0.18 16.47 0.15 16.89 0.15 C 17.22 0.15 17.52 -0.09 17.61 -0.38 Z M 18.66 -3.75 L 19.81 -7.42 L 20.97 -3.75 Z M 34.5 -0.38 L 37.41 -9.67 C 37.42 -9.73 37.44 -9.82 37.44 -9.9 C 37.44 -10.32 37.11 -10.65 36.69 -10.65 C 36.36 -10.65 36.06 -10.41 35.97 -10.13 L 33.77 -3.07 L 31.56 -10.13 C 31.47 -10.41 31.17 -10.65 30.84 -10.65 C 30.42 -10.65 30.09 -10.32 30.09 -9.9 C 30.09 -9.82 30.11 -9.73 30.12 -9.67 L 33.03 -0.38 C 33.12 -0.09 33.42 0.15 33.75 0.15 L 33.77 0.15 L 33.78 0.15 C 34.11 0.15 34.41 -0.09 34.5 -0.38 Z M 47.79 -0.6 L 47.79 -9.9 C 47.79 -10.32 47.46 -10.65 47.04 -10.65 C 46.62 -10.65 46.29 -10.32 46.29 -9.9 L 46.29 -0.6 C 46.29 -0.18 46.62 0.15 47.04 0.15 C 47.46 0.15 47.79 -0.18 47.79 -0.6 Z M 58.14 -0.75 L 58.14 -6.84 L 61.66 -0.39 C 61.78 -0.16 62.04 0 62.32 0 L 62.34 0 C 62.76 0 63.09 -0.33 63.09 -0.75 L 63.09 -9.75 C 63.09 -10.17 62.76 -10.5 62.34 -10.5 C 61.92 -10.5 61.59 -10.17 61.59 -9.75 L 61.59 -3.66 L 58.06 -10.11 C 57.94 -10.33 57.69 -10.5 57.4 -10.5 L 57.39 -10.5 C 56.97 -10.5 56.64 -10.17 56.64 -9.75 L 56.64 -0.75 C 56.64 -0.33 56.97 0 57.39 0 C 57.81 0 58.14 -0.33 58.14 -0.75 Z M 75.45 -3.73 L 77.05 -3.73 L 77.05 -2.94 C 77.05 -2.07 76.33 -1.35 75.45 -1.35 L 75.04 -1.35 C 74.1 -1.35 73.44 -2.01 73.44 -2.96 L 73.44 -7.54 C 73.44 -8.49 74.1 -9.15 75.04 -9.15 L 75.45 -9.15 C 76.33 -9.15 77.05 -8.43 77.05 -7.56 C 77.05 -7.14 77.38 -6.81 77.8 -6.81 C 78.22 -6.81 78.55 -7.14 78.55 -7.56 C 78.55 -9.27 77.17 -10.65 75.45 -10.65 L 75.04 -10.65 C 73.26 -10.65 71.94 -9.33 71.94 -7.54 L 71.94 -2.96 C 71.94 -1.17 73.26 0.15 75.04 0.15 L 75.45 0.15 C 77.17 0.15 78.55 -1.23 78.55 -2.94 L 78.55 -4.33 C 78.55 -4.84 78.16 -5.23 77.65 -5.23 L 75.45 -5.23 C 75.03 -5.23 74.7 -4.91 74.7 -4.48 C 74.7 -4.06 75.03 -3.73 75.45 -3.73 Z M 104.65 -1.5 L 100.9 -1.5 L 100.9 -9.9 C 100.9 -10.32 100.57 -10.65 100.15 -10.65 C 99.73 -10.65 99.4 -10.32 99.4 -9.9 L 99.4 -0.9 C 99.4 -0.38 99.79 0 100.3 0 L 104.65 0 C 105.07 0 105.4 -0.33 105.4 -0.75 C 105.4 -1.17 105.07 -1.5 104.65 -1.5 Z M 115.75 -0.6 L 115.75 -9.9 C 115.75 -10.32 115.42 -10.65 115 -10.65 C 114.58 -10.65 114.25 -10.32 114.25 -9.9 L 114.25 -0.6 C 114.25 -0.18 114.58 0.15 115 0.15 C 115.42 0.15 115.75 -0.18 115.75 -0.6 Z M 129.01 -0.38 L 131.92 -9.67 C 131.94 -9.73 131.95 -9.82 131.95 -9.9 C 131.95 -10.32 131.62 -10.65 131.2 -10.65 C 130.87 -10.65 130.57 -10.41 130.48 -10.13 L 128.28 -3.07 L 126.07 -10.13 C 125.98 -10.41 125.68 -10.65 125.35 -10.65 C 124.93 -10.65 124.6 -10.32 124.6 -9.9 C 124.6 -9.82 124.62 -9.73 124.63 -9.67 L 127.54 -0.38 C 127.63 -0.09 127.93 0.15 128.26 0.15 L 128.28 0.15 L 128.29 0.15 C 128.62 0.15 128.92 -0.09 129.01 -0.38 Z M 146.5 -1.5 L 142.3 -1.5 L 142.3 -4.5 L 145 -4.5 C 145.42 -4.5 145.75 -4.83 145.75 -5.25 C 145.75 -5.67 145.42 -6 145 -6 L 142.3 -6 L 142.3 -9 L 146.5 -9 C 146.92 -9 147.25 -9.33 147.25 -9.75 C 147.25 -10.17 146.92 -10.5 146.5 -10.5 L 141.7 -10.5 C 141.19 -10.5 140.8 -10.11 140.8 -9.6 L 140.8 -0.9 C 140.8 -0.38 141.19 0 141.7 0 L 146.5 0 C 146.92 0 147.25 -0.33 147.25 -0.75 C 147.25 -1.17 146.92 -1.5 146.5 -1.5 Z M 156.1 -2.96 C 156.1 -1.17 157.42 0.15 159.21 0.15 L 159.61 0.15 C 161.34 0.15 162.72 -1.23 162.72 -2.94 C 162.72 -4.48 161.37 -5.19 159.72 -5.96 C 158.47 -6.55 157.6 -7.04 157.6 -7.84 C 157.6 -8.49 158.26 -9.15 159.21 -9.15 L 159.61 -9.15 C 160.5 -9.15 161.22 -8.43 161.22 -7.56 C 161.22 -7.14 161.55 -6.81 161.97 -6.81 C 162.39 -6.81 162.72 -7.14 162.72 -7.56 C 162.72 -9.27 161.34 -10.65 159.61 -10.65 L 159.21 -10.65 C 157.42 -10.65 156.1 -9.33 156.1 -7.84 C 156.1 -6.04 157.78 -5.23 159.09 -4.6 C 160.35 -4.02 161.22 -3.58 161.22 -2.94 C 161.22 -2.07 160.5 -1.35 159.61 -1.35 L 159.21 -1.35 C 158.26 -1.35 157.6 -2.01 157.6 -2.96 C 157.6 -3.38 157.27 -3.71 156.85 -3.71 C 156.43 -3.71 156.1 -3.38 156.1 -2.96 Z M 172.84 -0.6 L 172.84 -0.9 C 172.84 -1.32 172.51 -1.65 172.09 -1.65 C 171.67 -1.65 171.34 -1.32 171.34 -0.9 L 171.34 -0.6 C 171.34 -0.18 171.67 0.15 172.09 0.15 C 172.51 0.15 172.84 -0.18 172.84 -0.6 Z M 200.08 -2.94 L 200.08 -7.56 C 200.08 -9.27 198.7 -10.65 196.98 -10.65 L 196.57 -10.65 C 194.79 -10.65 193.47 -9.33 193.47 -7.54 L 193.47 -2.96 C 193.47 -1.17 194.79 0.15 196.57 0.15 L 196.98 0.15 C 198.7 0.15 200.08 -1.23 200.08 -2.94 Z M 198.58 -7.56 L 198.58 -2.94 C 198.58 -2.07 197.86 -1.35 196.98 -1.35 L 196.57 -1.35 C 195.63 -1.35 194.97 -2.01 194.97 -2.96 L 194.97 -7.54 C 194.97 -8.49 195.63 -9.15 196.57 -9.15 L 196.98 -9.15 C 197.86 -9.15 198.58 -8.43 198.58 -7.56 Z M 210.44 -0.75 L 210.44 -6.84 L 213.96 -0.39 C 214.08 -0.16 214.33 0 214.62 0 L 214.63 0 C 215.05 0 215.38 -0.33 215.38 -0.75 L 215.38 -9.75 C 215.38 -10.17 215.05 -10.5 214.63 -10.5 C 214.22 -10.5 213.88 -10.17 213.88 -9.75 L 213.88 -3.66 L 210.36 -10.11 C 210.24 -10.33 209.98 -10.5 209.7 -10.5 L 209.69 -10.5 C 209.26 -10.5 208.94 -10.17 208.94 -9.75 L 208.94 -0.75 C 208.94 -0.33 209.26 0 209.69 0 C 210.1 0 210.44 -0.33 210.44 -0.75 Z M 229.94 -1.5 L 225.74 -1.5 L 225.74 -4.5 L 228.44 -4.5 C 228.85 -4.5 229.19 -4.83 229.19 -5.25 C 229.19 -5.67 228.85 -6 228.44 -6 L 225.74 -6 L 225.74 -9 L 229.94 -9 C 230.35 -9 230.69 -9.33 230.69 -9.75 C 230.69 -10.17 230.35 -10.5 229.94 -10.5 L 225.13 -10.5 C 224.63 -10.5 224.24 -10.11 224.24 -9.6 L 224.24 -0.9 C 224.24 -0.38 224.63 0 225.13 0 L 229.94 0 C 230.35 0 230.69 -0.33 230.69 -0.75 C 230.69 -1.17 230.35 -1.5 229.94 -1.5 Z M 251.54 -0.9 C 251.54 -0.38 251.93 0 252.44 0 L 255.05 0 C 256.77 0 258.15 -1.38 258.15 -3.09 C 258.15 -4.13 257.67 -5.02 256.89 -5.59 C 257.38 -6.12 257.69 -6.81 257.69 -7.59 C 257.69 -9.21 256.4 -10.5 254.78 -10.5 L 252.44 -10.5 C 251.93 -10.5 251.54 -10.11 251.54 -9.6 Z M 253.04 -1.5 L 253.04 -4.69 L 254.78 -4.69 C 254.87 -4.69 254.94 -4.69 255.05 -4.71 L 255.05 -4.69 C 255.93 -4.69 256.65 -3.97 256.65 -3.09 C 256.65 -2.22 255.93 -1.5 255.05 -1.5 Z M 253.04 -6.19 L 253.04 -9 L 254.78 -9 C 255.56 -9 256.19 -8.37 256.19 -7.59 C 256.19 -6.83 255.56 -6.19 254.78 -6.19 Z M 267 -0.6 C 267 -0.18 267.33 0.15 267.75 0.15 C 268.17 0.15 268.5 -0.18 268.5 -0.6 L 268.5 -4.3 L 269.65 -4.3 L 272.24 -0.2 C 272.35 0 272.59 0.15 272.87 0.15 C 273.28 0.15 273.62 -0.18 273.62 -0.6 C 273.62 -0.75 273.57 -0.89 273.5 -1 L 271.35 -4.42 C 272.65 -4.79 273.62 -5.98 273.62 -7.41 C 273.62 -9.12 272.24 -10.5 270.51 -10.5 L 267.9 -10.5 C 267.39 -10.5 267 -10.11 267 -9.6 Z M 268.5 -5.8 L 268.5 -9 L 270.51 -9 C 271.39 -9 272.12 -8.28 272.12 -7.41 C 272.12 -6.52 271.39 -5.8 270.51 -5.8 Z M 288.16 -1.5 L 283.96 -1.5 L 283.96 -4.5 L 286.66 -4.5 C 287.08 -4.5 287.41 -4.83 287.41 -5.25 C 287.41 -5.67 287.08 -6 286.66 -6 L 283.96 -6 L 283.96 -9 L 288.16 -9 C 288.58 -9 288.91 -9.33 288.91 -9.75 C 288.91 -10.17 288.58 -10.5 288.16 -10.5 L 283.36 -10.5 C 282.85 -10.5 282.46 -10.11 282.46 -9.6 L 282.46 -0.9 C 282.46 -0.38 282.85 0 283.36 0 L 288.16 0 C 288.58 0 288.91 -0.33 288.91 -0.75 C 288.91 -1.17 288.58 -1.5 288.16 -1.5 Z M 299.23 -0.38 L 299.82 -2.25 L 303.06 -2.25 L 303.64 -0.38 C 303.73 -0.09 304.03 0.15 304.36 0.15 C 304.78 0.15 305.11 -0.18 305.11 -0.6 C 305.11 -0.67 305.1 -0.77 305.08 -0.82 L 302.17 -10.13 C 302.08 -10.41 301.78 -10.65 301.45 -10.65 L 301.44 -10.65 L 301.42 -10.65 C 301.09 -10.65 300.79 -10.41 300.7 -10.13 L 297.79 -0.82 C 297.78 -0.77 297.76 -0.67 297.76 -0.6 C 297.76 -0.18 298.09 0.15 298.51 0.15 C 298.84 0.15 299.14 -0.09 299.23 -0.38 Z M 300.28 -3.75 L 301.44 -7.42 L 302.59 -3.75 Z M 313.06 -9 L 314.79 -9 L 314.79 -0.6 C 314.79 -0.18 315.12 0.15 315.54 0.15 C 315.96 0.15 316.29 -0.18 316.29 -0.6 L 316.29 -9 L 318.01 -9 C 318.44 -9 318.76 -9.33 318.76 -9.75 C 318.76 -10.17 318.44 -10.5 318.01 -10.5 L 313.06 -10.5 C 312.64 -10.5 312.31 -10.17 312.31 -9.75 C 312.31 -9.33 312.64 -9 313.06 -9 Z M 329.12 -0.6 L 329.12 -4.5 L 332.56 -4.5 L 332.56 -0.6 C 332.56 -0.18 332.89 0.15 333.31 0.15 C 333.74 0.15 334.06 -0.18 334.06 -0.6 L 334.06 -9.9 C 334.06 -10.32 333.74 -10.65 333.31 -10.65 C 332.89 -10.65 332.56 -10.32 332.56 -9.9 L 332.56 -6 L 329.12 -6 L 329.12 -9.9 C 329.12 -10.32 328.79 -10.65 328.37 -10.65 C 327.94 -10.65 327.62 -10.32 327.62 -9.9 L 327.62 -0.6 C 327.62 -0.18 327.94 0.15 328.37 0.15 C 328.79 0.15 329.12 -0.18 329.12 -0.6 Z M 356.38 -0.38 L 356.97 -2.25 L 360.21 -2.25 L 360.8 -0.38 C 360.88 -0.09 361.19 0.15 361.51 0.15 C 361.94 0.15 362.26 -0.18 362.26 -0.6 C 362.26 -0.67 362.25 -0.77 362.24 -0.82 L 359.32 -10.13 C 359.24 -10.41 358.94 -10.65 358.61 -10.65 L 358.59 -10.65 L 358.57 -10.65 C 358.25 -10.65 357.94 -10.41 357.86 -10.13 L 354.94 -0.82 C 354.93 -0.77 354.92 -0.67 354.92 -0.6 C 354.92 -0.18 355.25 0.15 355.67 0.15 C 356 0.15 356.3 -0.09 356.38 -0.38 Z M 357.44 -3.75 L 358.59 -7.42 L 359.75 -3.75 Z M 370.22 -9 L 371.94 -9 L 371.94 -0.6 C 371.94 -0.18 372.27 0.15 372.69 0.15 C 373.11 0.15 373.44 -0.18 373.44 -0.6 L 373.44 -9 L 375.17 -9 C 375.59 -9 375.92 -9.33 375.92 -9.75 C 375.92 -10.17 375.59 -10.5 375.17 -10.5 L 370.22 -10.5 C 369.8 -10.5 369.47 -10.17 369.47 -9.75 C 369.47 -9.33 369.8 -9 370.22 -9 Z M 398.24 -0.38 L 398.82 -2.25 L 402.06 -2.25 L 402.65 -0.38 C 402.74 -0.09 403.04 0.15 403.37 0.15 C 403.79 0.15 404.12 -0.18 404.12 -0.6 C 404.12 -0.67 404.1 -0.77 404.09 -0.82 L 401.18 -10.13 C 401.09 -10.41 400.79 -10.65 400.46 -10.65 L 400.44 -10.65 L 400.43 -10.65 C 400.1 -10.65 399.8 -10.41 399.71 -10.13 L 396.8 -0.82 C 396.78 -0.77 396.77 -0.67 396.77 -0.6 C 396.77 -0.18 397.1 0.15 397.52 0.15 C 397.85 0.15 398.15 -0.09 398.24 -0.38 Z M 399.29 -3.75 L 400.44 -7.42 L 401.6 -3.75 Z M 425.72 -9 L 427.44 -9 L 427.44 -0.6 C 427.44 -0.18 427.77 0.15 428.19 0.15 C 428.61 0.15 428.94 -0.18 428.94 -0.6 L 428.94 -9 L 430.67 -9 C 431.09 -9 431.42 -9.33 431.42 -9.75 C 431.42 -10.17 431.09 -10.5 430.67 -10.5 L 425.72 -10.5 C 425.3 -10.5 424.97 -10.17 424.97 -9.75 C 424.97 -9.33 425.3 -9 425.72 -9 Z M 441.77 -0.6 L 441.77 -9.9 C 441.77 -10.32 441.44 -10.65 441.02 -10.65 C 440.6 -10.65 440.27 -10.32 440.27 -9.9 L 440.27 -0.6 C 440.27 -0.18 440.6 0.15 441.02 0.15 C 441.44 0.15 441.77 -0.18 441.77 -0.6 Z M 452.12 -0.75 L 452.12 -6.19 L 454.64 -0.45 C 454.76 -0.18 455.03 0 455.33 0 L 455.34 0 L 455.36 0 C 455.66 0 455.93 -0.18 456.05 -0.45 L 458.57 -6.19 L 458.57 -0.75 C 458.57 -0.33 458.9 0 459.32 0 C 459.74 0 460.07 -0.33 460.07 -0.75 L 460.07 -9.75 C 460.07 -10.17 459.74 -10.5 459.32 -10.5 L 459.3 -10.5 C 459 -10.5 458.73 -10.32 458.61 -10.05 L 455.34 -2.59 L 452.07 -10.05 C 451.95 -10.32 451.68 -10.5 451.38 -10.5 L 451.37 -10.5 C 450.95 -10.5 450.62 -10.17 450.62 -9.75 L 450.62 -0.75 C 450.62 -0.33 450.95 0 451.37 0 C 451.79 0 452.12 -0.33 452.12 -0.75 Z M 474.62 -1.5 L 470.42 -1.5 L 470.42 -4.5 L 473.12 -4.5 C 473.54 -4.5 473.87 -4.83 473.87 -5.25 C 473.87 -5.67 473.54 -6 473.12 -6 L 470.42 -6 L 470.42 -9 L 474.62 -9 C 475.04 -9 475.37 -9.33 475.37 -9.75 C 475.37 -10.17 475.04 -10.5 474.62 -10.5 L 469.82 -10.5 C 469.31 -10.5 468.92 -10.11 468.92 -9.6 L 468.92 -0.9 C 468.92 -0.38 469.31 0 469.82 0 L 474.62 0 C 475.04 0 475.37 -0.33 475.37 -0.75 C 475.37 -1.17 475.04 -1.5 474.62 -1.5 Z M 485.49 -0.6 L 485.49 -0.9 C 485.49 -1.32 485.16 -1.65 484.74 -1.65 C 484.32 -1.65 483.99 -1.32 483.99 -0.9 L 483.99 -0.6 C 483.99 -0.18 484.32 0.15 484.74 0.15 C 485.16 0.15 485.49 -0.18 485.49 -0.6 Z" stroke-linecap="round" />
</g>
</g>
</g>
<g transform="matrix(1.9211538461538462 0 0 1.9211538461538462 640 388.78080079558185)" id="logo-logo"  >
<g style=""  paint-order="stroke"   >
		<g transform="matrix(0.08580618883254935 0 0 -0.08580618883254935 2.472518452416125 -38.93990846980404)"  >
<path style="stroke: none; stroke-width: 1; stroke-dasharray: none; stroke-linecap: butt; stroke-dashoffset: 0; stroke-linejoin: miter; stroke-miterlimit: 4; fill: rgb(0,184,225); fill-rule: evenodd; opacity: 1;"  paint-order="stroke"  transform=" translate(-1115.6028730762316, -1451.3887807705619)" d="M 1042.79 1991.01 L 1144.86 1991.01 C 1162.04 1991.01 1176.09 1976.96 1176.09 1959.77 L 1176.09 1514.03 C 1192.76 1280.75 1371.8899999999999 1228.67 1371.8899999999999 1228.67 L 1425.8 1049.77 L 1301.29 1155.83 L 1298.97 1119.53 L 1441.3600000000001 998.145 L 1463.5300000000002 924.563 C 1463.5300000000002 924.563 1353.13 876.66 1319.8100000000002 966.227 C 1286.4900000000002 1055.79 1203.17 1234.9099999999999 1076.1100000000001 1234.9099999999999 C 949.0630000000001 1234.9099999999999 846.9960000000001 947.4799999999998 846.9960000000001 947.4799999999998 C 846.9960000000001 947.4799999999998 665.7810000000001 1034.9599999999998 851.1600000000001 1228.6699999999998 C 977.5430000000001 1360.7399999999998 1006.1400000000001 1450.1899999999998 1011.5500000000001 1493.7499999999998 L 1011.5500000000001 1524.4499999999998 L 1011.5500000000001 1959.7699999999998 C 1011.5500000000001 1976.9599999999998 1025.6000000000001 1991.0099999999998 1042.79 1991.0099999999998" stroke-linecap="round" />
</g>
		<g transform="matrix(0.08580618883254935 0 0 -0.08580618883254935 -53.331118526728744 13.08470348568315)"  >
<path style="stroke: none; stroke-width: 1; stroke-dasharray: none; stroke-linecap: butt; stroke-dashoffset: 0; stroke-linejoin: miter; stroke-miterlimit: 4; fill: rgb(234,255,255); fill-rule: evenodd; opacity: 1;"  paint-order="stroke"  transform=" translate(-465.2577436818283, -845.0850553246837)" d="M 875.023 1420.3 C 875.023 1420.3 925.02 857.9259999999999 891.688 553.813 C 858.355 249.703 725.055 170.547 520.93 124.73 C 316.809 78.9102 275.148 -29.3945 129.34 53.918 C -16.4609 137.23 -24.793 816.254 229.324 1286.99 C 483.434 1757.73 730.258 1662.95 758.3789999999999 1651.5 C 786.4959999999999 1640.05 856.2769999999999 1607.76 875.0229999999999 1420.3" stroke-linecap="round" />
</g>
		<g transform="matrix(0.08580618883254935 0 0 -0.08580618883254935 -53.331118526728744 13.08470348568315)"  >
<path style="stroke: rgb(0,184,225); stroke-width: 39.36190033; stroke-dasharray: none; stroke-linecap: round; stroke-dashoffset: 0; stroke-linejoin: round; stroke-miterlimit: 22.92560005; fill: none; fill-rule: nonzero; opacity: 1;"  paint-order="stroke"  transform=" translate(-465.2577436818283, -845.0850553246837)" d="M 875.023 1420.3 C 875.023 1420.3 925.02 857.9259999999999 891.688 553.813 C 858.355 249.703 725.055 170.547 520.93 124.73 C 316.809 78.9102 275.148 -29.3945 129.34 53.918 C -16.4609 137.23 -24.793 816.254 229.324 1286.99 C 483.434 1757.73 730.258 1662.95 758.3789999999999 1651.5 C 786.4959999999999 1640.05 856.2769999999999 1607.76 875.0229999999999 1420.3 z" stroke-linecap="round" />
</g>
		<g transform="matrix(0.08580618883254935 0 0 -0.08580618883254935 -44.95697024321396 -5.164122977079018)"  >
<path style="stroke: rgb(0,184,225); stroke-width: 39.36190033; stroke-dasharray: none; stroke-linecap: round; stroke-dashoffset: 0; stroke-linejoin: round; stroke-miterlimit: 22.92560005; fill: none; fill-rule: nonzero; opacity: 1;"  paint-order="stroke"  transform=" translate(-562.8515, -1057.76)" d="M 889.074 1226.43 C 889.074 1226.43 669.867 1072.38 515.7339999999999 1039.06 C 361.602 1005.73 236.629 889.09 236.629 889.09" stroke-linecap="round" />
</g>
		<g transform="matrix(0.08580618883254935 0 0 -0.08580618883254935 -41.24113323582043 6.257152690571871)"  >
<path style="stroke: rgb(0,184,225); stroke-width: 39.36190033; stroke-dasharray: none; stroke-linecap: round; stroke-dashoffset: 0; stroke-linejoin: round; stroke-miterlimit: 22.92560005; fill: none; fill-rule: nonzero; opacity: 1;"  paint-order="stroke"  transform=" translate(-606.1565, -924.6545)" d="M 488.645 724.539 C 488.645 724.539 524.055 872.434 615.707 945.332 C 707.355 1018.23 723.668 1124.77 723.668 1124.77" stroke-linecap="round" />
</g>
		<g transform="matrix(0.08580618883254935 0 0 -0.08580618883254935 -36.97763822820309 -26.538015584322892)"  >
<path style="stroke: rgb(0,184,225); stroke-width: 39.36190033; stroke-dasharray: none; stroke-linecap: round; stroke-dashoffset: 0; stroke-linejoin: round; stroke-miterlimit: 22.92560005; fill: none; fill-rule: nonzero; opacity: 1;"  paint-order="stroke"  transform=" translate(-655.844, -1306.855)" d="M 823.043 1183.06 C 823.043 1183.06 767.75 1261.9299999999998 630.285 1270.26 C 492.816 1278.59 488.645 1430.65 488.645 1430.65" stroke-linecap="round" />
</g>
		<g transform="matrix(0.08580618883254935 0 0 -0.08580618883254935 -62.026595503206124 -8.71272819155385)"  >
<path style="stroke: rgb(0,184,225); stroke-width: 39.36190033; stroke-dasharray: none; stroke-linecap: round; stroke-dashoffset: 0; stroke-linejoin: round; stroke-miterlimit: 22.92560005; fill: none; fill-rule: nonzero; opacity: 1;"  paint-order="stroke"  transform=" translate(-363.9191678193516, -1099.1160520838414)" d="M 467.383 1025.75 C 467.383 1025.75 396.984 1009.89 322.004 1068.22 C 247.02000000000004 1126.54 261.598 1174.45 261.598 1174.45" stroke-linecap="round" />
</g>
		<g transform="matrix(0.08580618883254935 0 0 -0.08580618883254935 -75.33626384943275 40.11391513370296)"  >
<path style="stroke: rgb(0,184,225); stroke-width: 39.36190033; stroke-dasharray: none; stroke-linecap: round; stroke-dashoffset: 0; stroke-linejoin: round; stroke-miterlimit: 22.92560005; fill: none; fill-rule: nonzero; opacity: 1;"  paint-order="stroke"  transform=" translate(-208.80601657334512, -530.082)" d="M 296.387 773.785 C 296.387 773.785 296.395 665.473 204.74200000000002 548.828 C 113.09400000000002 432.18399999999997 121.42200000000003 286.37899999999996 121.42200000000003 286.37899999999996" stroke-linecap="round" />
</g>
		<g transform="matrix(0.08580618883254935 0 0 -0.08580618883254935 -64.08234416501028 46.56847117315942)"  >
<path style="stroke: rgb(0,184,225); stroke-width: 39.36190033; stroke-dasharray: none; stroke-linecap: round; stroke-dashoffset: 0; stroke-linejoin: round; stroke-miterlimit: 22.92560005; fill: none; fill-rule: nonzero; opacity: 1;"  paint-order="stroke"  transform=" translate(-339.9611213220768, -454.8595)" d="M 379.699 255.133 C 379.699 255.133 446.355 355.113 390.113 446.766 C 333.875 538.414 263.449 508.309 267.414 654.586" stroke-linecap="round" />
</g>
		<g transform="matrix(0.08580618883254935 0 0 -0.08580618883254935 -42.747460880775805 22.332649422220328)"  >
<path style="stroke: rgb(0,184,225); stroke-width: 39.36190033; stroke-dasharray: none; stroke-linecap: round; stroke-dashoffset: 0; stroke-linejoin: round; stroke-miterlimit: 22.92560005; fill: none; fill-rule: nonzero; opacity: 1;"  paint-order="stroke"  transform=" translate(-588.6015, -737.3079117134636)" d="M 771.902 912.008 C 771.902 912.008 736.484 726.6210000000001 609.4300000000001 632.8910000000001 C 482.379 539.164 405.301 566.238 405.301 566.238" stroke-linecap="round" />
</g>
		<g transform="matrix(0.08580618883254935 0 0 -0.08580618883254935 -34.21245322451006 36.708138789655834)"  >
<path style="stroke: rgb(0,184,225); stroke-width: 39.36190033; stroke-dasharray: none; stroke-linecap: round; stroke-dashoffset: 0; stroke-linejoin: round; stroke-miterlimit: 22.92560005; fill: none; fill-rule: nonzero; opacity: 1;"  paint-order="stroke"  transform=" translate(-688.0699389598261, -569.7735)" d="M 632.348 357.945 C 632.348 357.945 628.184 466.254 703.1679999999999 557.906 C 778.1519999999999 649.559 726.4799999999999 781.602 726.4799999999999 781.602" stroke-linecap="round" />
</g>
		<g transform="matrix(0.08580618883254935 0 0 -0.08580618883254935 54.97694346526396 13.124062118796616)"  >
<linearGradient id="SVGID_2_815512" gradientUnits="userSpaceOnUse" gradientTransform="matrix(10 0 0 10 -1880 -3670)"  x1="331.39099" y1="485.828" x2="376.95599" y2="408.96899">
<stop offset="0%" style="stop-color:rgb(0,184,225);stop-opacity: 1"/>
<stop offset="100%" style="stop-color:rgb(82,214,222);stop-opacity: 1"/>
</linearGradient>
<path style="stroke: none; stroke-width: 1; stroke-dasharray: none; stroke-linecap: butt; stroke-dashoffset: 0; stroke-linejoin: miter; stroke-miterlimit: 4; fill: url(#SVGID_2_815512); fill-rule: nonzero; opacity: 1;"  paint-order="stroke"  transform=" translate(-1727.4984219545308, -844.6263630829123)" d="M 1964.27 265.258 C 1990.73 265.258 2012.17 243.813 2012.17 217.355 C 2012.17 190.89499999999998 1990.73 169.44899999999998 1964.27 169.44899999999998 C 1937.81 169.44899999999998 1916.37 190.89499999999998 1916.37 217.355 C 1916.37 243.813 1937.81 265.258 1964.27 265.258 z M 1317.73 1420.3 C 1317.73 1420.3 1309.18 1324.11 1301.52 1189.81 L 1296.01 1081.44 C 1288.29 906.7930000000001 1285.01 700.34 1301.07 553.8130000000001 C 1310.48 467.9180000000001 1327.8799999999999 399.9690000000001 1352.59 345.64800000000014 L 1527.82 447.64500000000015 C 1524.52 456.48800000000017 1522.71 466.05100000000016 1522.71 476.05100000000016 C 1522.71 511.60900000000015 1545.57 541.8320000000001 1577.39 552.8280000000002 L 1512.98 896.7340000000002 C 1481.57 900.0310000000002 1457.09 926.5940000000002 1457.09 958.8710000000001 C 1457.09 966.7420000000001 1458.55 974.2700000000001 1461.2099999999998 981.2070000000001 L 1329.6599999999999 1093.49 L 1329.6499999999999 1093.5 L 1327.85 1095.04 C 1324.6999999999998 1098.1299999999999 1318.98 1105.69 1323.7099999999998 1116.76 C 1330.0299999999997 1131.5 1350.5499999999997 1114 1350.5499999999997 1114 L 1350.5499999999997 1114 L 1477.8299999999997 1005.36 C 1488.2499999999998 1014.71 1501.8199999999997 1020.62 1516.7399999999998 1021.29 L 1580.9499999999998 1299.53 C 1544.9399999999998 1314.32 1519.5699999999997 1349.73 1519.5699999999997 1391.07 C 1519.5699999999997 1445.71 1563.8699999999997 1490.02 1618.5199999999998 1490.02 C 1673.1599999999999 1490.02 1717.4499999999998 1445.71 1717.4499999999998 1391.07 C 1717.4499999999998 1366.9399999999998 1708.8099999999997 1344.83 1694.4499999999998 1327.6499999999999 L 1898.4099999999999 897.5429999999999 C 1907.2099999999998 899.5159999999998 1916.35 900.5509999999999 1925.7299999999998 900.5509999999999 C 1994.7499999999998 900.5509999999999 2050.7099999999996 844.598 2050.7099999999996 775.578 C 2050.7099999999996 712.75 2004.3199999999995 660.742 1943.9299999999996 651.9259999999999 L 1976.1499999999996 315.5779999999999 C 2025.1999999999996 309.7109999999999 2063.2099999999996 267.9769999999999 2063.2099999999996 217.3549999999999 C 2063.2099999999996 162.71499999999992 2018.9099999999996 118.4139999999999 1964.2699999999995 118.4139999999999 C 1909.6299999999994 118.4139999999999 1865.3299999999995 162.71499999999992 1865.3299999999995 217.3549999999999 C 1865.3299999999995 231.1989999999999 1868.1799999999994 244.3949999999999 1873.3199999999995 256.3629999999999 L 1655.6599999999994 413.4219999999999 C 1641.6099999999994 401.8049999999999 1623.5899999999995 394.83199999999994 1603.9399999999994 394.83199999999994 C 1579.2199999999993 394.83199999999994 1557.0899999999995 405.86699999999996 1542.1899999999994 423.28099999999995 L 1365.1899999999994 320.26199999999994 C 1429.5499999999993 201.32799999999995 1534.7099999999994 155.49999999999994 1671.8199999999993 124.72999999999993 C 1875.9499999999994 78.91019999999993 1917.6099999999992 -29.39450000000008 2063.4099999999994 53.917999999999935 C 2209.2199999999993 137.22999999999993 2217.5499999999993 816.2539999999999 1963.4299999999994 1286.9899999999998 C 1709.3199999999993 1757.7299999999998 1463.5399999999995 1660.8799999999997 1434.3799999999994 1651.4999999999998 C 1405.2199999999993 1642.1299999999999 1336.4799999999993 1607.7599999999998 1317.7299999999993 1420.2999999999997 z M 1603.94 515.371 C 1625.64 515.371 1643.26 497.762 1643.26 476.051 C 1643.26 454.336 1625.64 436.727 1603.94 436.727 C 1582.22 436.727 1564.6100000000001 454.33599999999996 1564.6100000000001 476.051 C 1564.6100000000001 497.762 1582.22 515.371 1603.94 515.371 z M 1925.73 836.086 C 1959.14 836.086 1986.24 808.988 1986.24 775.578 C 1986.24 742.168 1959.14 715.0699999999999 1925.73 715.0699999999999 C 1892.32 715.0699999999999 1865.23 742.1679999999999 1865.23 775.578 C 1865.23 808.9879999999999 1892.32 836.086 1925.73 836.086 z M 1519.57 989.125 C 1536.28 989.125 1549.83 975.578 1549.83 958.871 C 1549.83 942.164 1536.28 928.617 1519.57 928.617 C 1502.87 928.617 1489.32 942.164 1489.32 958.871 C 1489.32 975.578 1502.87 989.125 1519.57 989.125 z M 1618.52 1438.98 C 1644.96 1438.98 1666.42 1417.52 1666.42 1391.07 C 1666.42 1364.62 1644.96 1343.1699999999998 1618.52 1343.1699999999998 C 1592.06 1343.1699999999998 1570.61 1364.62 1570.61 1391.07 C 1570.61 1417.52 1592.06 1438.98 1618.52 1438.98 z M 1946.97 314.785 L 1914.75 651.09 C 1850.88 656.6600000000001 1800.76 710.2620000000001 1800.76 775.578 C 1800.76 787.875 1802.55 799.762 1805.85 810.9879999999999 L 1569 920.648 C 1562 911.5980000000001 1552.55 904.5350000000001 1541.66 900.4100000000001 L 1605.93 557.2460000000001 C 1649.8700000000001 556.1840000000001 1685.15 520.2340000000002 1685.15 476.0510000000001 C 1685.15 461.0820000000001 1681.1000000000001 447.0630000000001 1674.0400000000002 435.0270000000001 L 1888.13 280.5390000000001 C 1902.7900000000002 298.1720000000001 1923.43 310.6330000000001 1946.97 314.7850000000001 z M 1872.82 888.8199999999999 L 1673.61 1308.8899999999999 C 1657.87 1298.3 1638.9099999999999 1292.1299999999999 1618.52 1292.1299999999999 C 1615.3899999999999 1292.1299999999999 1612.31 1292.28 1609.27 1292.57 L 1545.4 1015.78 C 1567.02 1005.9499999999999 1582.0600000000002 984.164 1582.0600000000002 958.871 C 1582.0600000000002 954.895 1581.68 951.016 1580.9700000000003 947.25 L 1817.3300000000004 837.816 C 1830.1100000000004 860.0160000000001 1849.5100000000004 877.9100000000001 1872.8200000000004 888.82" stroke-linecap="round" />
</g>
</g>
</g>
</svg>